<svg xmlns="http://www.w3.org/2000/svg" width="550" height="133.683" viewBox="0 0 318.036 77.302">
  <defs>
    <clipPath clipPathUnits="userSpaceOnUse" id="a">
      <path d="M0 793.7h595.28V0H0z"/>
    </clipPath>
  </defs>
  <path d="M160.95 73.557l14.937-57.054h14.598l-14.67 57.054z"/>
  <path d="M190.96 16.135h-15.357l-.144.551-14.745 56.316-.241.921H176.1l.144-.552 14.477-56.316zm-.95.736L175.53 73.19h-14.104l14.744-56.318zM184.229 73.557l11.108-42.503h14.87l-11.106 42.503z"/>
  <path d="M210.685 30.685H195.05l-.142.55-10.916 41.767-.24.922h15.633l.144-.55 10.913-41.766zm-.954.736l-10.913 41.767h-14.112L195.62 31.42z"/>
  <g clip-path="url(#a)" transform="matrix(1.33333 0 0 -1.33333 -237.806 568.417)">
    <path d="M359.134 371.146l4.737 18.132c.678 2.627 1.022 4.2 1.022 4.68 0 1-.357 1.764-1.092 2.332-.746.58-1.813.872-3.167.872-1.494 0-3.186-.514-5.03-1.53-1.84-1.012-3.307-2.37-4.36-4.034-.768-1.19-1.65-3.674-2.621-7.386l-3.411-13.066h-11.15l8.33 31.876h10.596l-.941-3.71c2.296 1.527 4.477 2.646 6.488 3.33 2.197.743 4.54 1.12 6.966 1.12 3.266 0 5.886-.764 7.787-2.272 1.915-1.523 2.887-3.571 2.887-6.086 0-1.138-.401-3.206-1.226-6.324l-4.662-17.934z"/>
    <path d="M365.501 404.038c-2.456 0-4.829-.382-7.054-1.135-1.86-.631-3.86-1.63-5.959-2.972l.68 2.68.175.689h-11.165l-.108-.413-8.185-31.325-.181-.691h11.722l.107.412 3.358 12.86c.963 3.683 1.832 6.14 2.584 7.303 1.03 1.629 2.463 2.955 4.263 3.946 1.802.992 3.449 1.495 4.896 1.495 1.292 0 2.301-.274 2.998-.814.663-.513.985-1.204.985-2.115 0-.313-.176-1.368-1.013-4.612l-4.647-17.784-.181-.691H370.5l.107.413 4.61 17.727c.83 3.14 1.233 5.232 1.233 6.393 0 2.603-1.006 4.724-2.99 6.302-1.952 1.547-4.629 2.332-7.959 2.332m0-.552c3.22 0 5.757-.74 7.615-2.212 1.856-1.476 2.782-3.431 2.782-5.87 0-1.102-.405-3.188-1.215-6.254l-4.61-17.728h-10.582l4.647 17.786c.685 2.655 1.031 4.239 1.031 4.75 0 1.08-.398 1.932-1.199 2.55-.799.62-1.91.93-3.336.93-1.549 0-3.27-.521-5.162-1.563-1.893-1.042-3.379-2.42-4.461-4.13-.788-1.22-1.672-3.706-2.655-7.462l-3.357-12.861h-10.58l8.186 31.325h10.028l-1.032-4.07c2.507 1.73 4.848 2.965 7.023 3.703 2.176.737 4.469 1.106 6.877 1.106M406.41 389.898c.015.241.021.435.021.58 0 2.223-.626 3.91-1.862 5.016-1.245 1.107-2.944 1.668-5.05 1.668-2.117 0-4.04-.646-5.716-1.92-1.595-1.212-2.716-3.009-3.334-5.344zm-9.807-19.49c-5.3 0-9.675 1.365-13.005 4.057-3.345 2.706-5.042 6.337-5.042 10.791 0 4.338 1.525 8.25 4.532 11.627 4.092 4.564 10.004 6.878 17.572 6.878 4.835 0 8.741-1.217 11.607-3.618 2.88-2.415 4.34-5.836 4.34-10.167 0-2.059-.253-3.942-.75-5.596l-.059-.197h-26.495a7.955 7.955 0 0 1-.019-.49c0-1.993.718-3.619 2.135-4.834 1.428-1.23 3.197-1.852 5.26-1.852 3.4 0 6.09 1.428 7.994 4.244l.095.141 10.063-1.346-.218-.36c-1.862-3.08-4.388-5.424-7.508-6.964-3.113-1.536-6.647-2.314-10.502-2.314"/>
    <path d="M390.832 390.174c.619 2.106 1.672 3.735 3.138 4.849 1.628 1.236 3.494 1.863 5.549 1.863 2.036 0 3.673-.537 4.867-1.598 1.175-1.05 1.77-2.67 1.77-4.81a7.46 7.46 0 0 0-.008-.304zm9.828 13.864c-7.65 0-13.631-2.345-17.777-6.97-3.054-3.43-4.602-7.404-4.602-11.811 0-4.542 1.731-8.244 5.145-11.006 3.379-2.732 7.812-4.118 13.177-4.118 3.898 0 7.472.788 10.625 2.342 3.167 1.564 5.732 3.942 7.622 7.069l.435.72-.835.112-9.475 1.268-.339.046-.192-.284c-1.876-2.774-4.416-4.123-7.765-4.123-1.995 0-3.704.6-5.079 1.785-1.373 1.177-2.04 2.69-2.04 4.625 0 .06.001.133.004.215h26.439l.118.393c.505 1.68.761 3.589.761 5.676 0 4.417-1.492 7.908-4.437 10.378-2.918 2.444-6.883 3.683-11.785 3.683m-10.546-14.416h16.556c.024.373.038.658.038.856 0 2.32-.653 4.058-1.955 5.222-1.303 1.159-3.049 1.739-5.234 1.739-2.19 0-4.15-.66-5.883-1.977-1.733-1.316-2.907-3.265-3.522-5.84m10.546 13.864c4.794 0 8.603-1.186 11.431-3.554 2.826-2.371 4.239-5.69 4.239-9.955 0-2.046-.247-3.886-.737-5.517h-26.547c-.027-.335-.038-.59-.038-.767 0-2.085.743-3.767 2.231-5.043 1.487-1.28 3.301-1.918 5.44-1.918 3.512 0 6.255 1.455 8.222 4.365l9.476-1.268c-1.843-3.05-4.309-5.336-7.394-6.86-3.086-1.521-6.545-2.284-10.38-2.284-5.259 0-9.537 1.332-12.831 3.996-3.294 2.665-4.939 6.189-4.939 10.576 0 4.287 1.486 8.102 4.461 11.443 4.056 4.524 9.845 6.786 17.366 6.786"/>
    <path d="M337.77 411.306c0-2.96-2.575-5.357-5.75-5.357-3.178 0-5.751 2.398-5.751 5.357s2.573 5.359 5.752 5.359c3.174 0 5.75-2.4 5.75-5.36" fill="#f2961a"/>
    <path d="M337.77 411.306c0-2.96-2.575-5.357-5.75-5.357-3.178 0-5.751 2.398-5.751 5.357s2.573 5.359 5.752 5.359c3.174 0 5.75-2.4 5.75-5.36z" fill="none" stroke="#fff" stroke-width=".559"/>
    <path d="M178.577 368.534c19.63 19.177 35.583 27.692 45.363 32.053-1.777-3.476-3.838-17.375-3.838-17.375s30.71 25.678 84.092 29.541c-3.312.295-6.638.43-9.943.43-29.243 0-57.129-10.6-63.955-14.837 1.177 8.623 5.083 14.182 5.083 14.182s-27.995-4.857-56.802-43.994" fill="#f2961a" fill-rule="evenodd"/>
    <path d="M178.577 368.534c19.63 19.177 35.583 27.692 45.363 32.053-1.777-3.476-3.838-17.375-3.838-17.375s30.71 25.678 84.092 29.541c-3.312.295-6.638.43-9.943.43-29.243 0-57.129-10.6-63.955-14.837 1.177 8.623 5.083 14.182 5.083 14.182s-27.995-4.857-56.802-43.994z" fill="none" stroke="#fff" stroke-width=".552"/>
    <path d="M281.83 371.146l4.734 18.132c.846 3.256 1.023 4.343 1.023 4.68 0 1-.356 1.763-1.09 2.333-.747.579-1.814.872-3.168.872-1.494 0-3.186-.515-5.029-1.53-1.842-1.012-3.31-2.37-4.363-4.035-.769-1.195-1.65-3.68-2.62-7.386l-3.407-13.066h-11.155l8.33 31.877h10.6l-.944-3.71c2.296 1.527 4.476 2.646 6.49 3.329 2.195.743 4.538 1.12 6.965 1.12 3.268 0 5.887-.764 7.785-2.272 1.916-1.524 2.888-3.572 2.888-6.086 0-1.135-.4-3.203-1.226-6.324l-4.66-17.934z"/>
    <path d="M288.196 404.038c-2.457 0-4.83-.382-7.054-1.135-1.86-.631-3.86-1.63-5.96-2.971l.682 2.679.175.689H264.872l-.108-.413-8.186-31.325-.18-.691h11.725l.107.412 3.354 12.86c.963 3.678 1.832 6.136 2.584 7.304 1.03 1.629 2.464 2.954 4.265 3.945 1.802.992 3.45 1.495 4.896 1.495 1.292 0 2.301-.274 3-.814.66-.514.982-1.205.982-2.115 0-.263-.132-1.212-1.014-4.611l-4.645-17.785-.18-.691h11.723l.107.413 4.608 17.727c.83 3.142 1.234 5.234 1.234 6.393 0 2.603-1.006 4.723-2.99 6.302-1.949 1.547-4.626 2.332-7.958 2.332m0-.552c3.221 0 5.758-.74 7.613-2.212 1.856-1.476 2.783-3.431 2.783-5.87 0-1.102-.406-3.188-1.216-6.254l-4.608-17.728h-10.582l4.645 17.786c.69 2.655 1.032 4.239 1.032 4.75 0 1.08-.399 1.932-1.196 2.55-.8.62-1.914.93-3.338.93-1.548 0-3.27-.521-5.162-1.563-1.895-1.042-3.38-2.42-4.463-4.13-.785-1.22-1.67-3.706-2.654-7.462l-3.354-12.861h-10.584l8.187 31.325h10.03l-1.035-4.07c2.507 1.73 4.85 2.965 7.025 3.703 2.175.737 4.467 1.106 6.877 1.106M222.823 370.244c-5.793 0-10.729 1.152-14.67 3.424-3.944 2.274-6.78 5.138-8.434 8.512a28.72 28.72 0 0 0-.515 1.125l-.087.201.176.131a147.62 147.62 0 0 0 10.814 7.318l.361.222.056-.42c.373-2.778 1.604-5.18 3.661-7.147 2.526-2.413 5.901-3.637 10.033-3.637 3.367 0 6.651.973 9.761 2.891 3.11 1.918 5.72 4.87 7.76 8.776.47.904.894 1.833 1.296 2.84l.04.1.097.047a163.891 163.891 0 0 0 14.383 6.066l.411.151-.04-.436c-.437-4.665-1.948-9.242-4.49-13.602-3.08-5.289-7.324-9.416-12.612-12.267-5.285-2.85-11.34-4.295-18-4.295"/>
    <path d="M258.282 401.253l-.822-.3a164.743 164.743 0 0 1-14.407-6.077l-.194-.094-.08-.199c-.398-.999-.82-1.92-1.286-2.816-2.015-3.86-4.592-6.777-7.66-8.669-3.064-1.89-6.3-2.849-9.615-2.849-4.058 0-7.37 1.198-9.842 3.561-2.011 1.921-3.214 4.27-3.577 6.983l-.113.84-.723-.443a147.857 147.857 0 0 1-10.834-7.332l-.352-.26.175-.403c.164-.379.335-.759.52-1.138 1.677-3.423 4.55-6.326 8.543-8.629 3.984-2.296 8.966-3.46 14.809-3.46 6.706 0 12.806 1.456 18.132 4.327 5.333 2.876 9.613 7.04 12.72 12.371 2.562 4.396 4.084 9.01 4.524 13.716zm-.631-.82c-.433-4.62-1.906-9.119-4.452-13.489-3.071-5.27-7.24-9.322-12.505-12.162-5.267-2.84-11.224-4.262-17.87-4.262-5.774 0-10.618 1.13-14.533 3.387-3.915 2.258-6.688 5.055-8.323 8.393-.182.371-.35.744-.51 1.115a146.617 146.617 0 0 0 10.793 7.304c.38-2.834 1.615-5.275 3.743-7.308 2.59-2.476 5.999-3.714 10.224-3.714 3.436 0 6.738.977 9.906 2.931 3.168 1.955 5.787 4.917 7.859 8.884.5.961.929 1.914 1.309 2.866 4.23 2.03 9.03 4.1 14.359 6.055M197.264 393.226c.087 2.948.638 6.056 1.64 9.24 1.44 4.699 3.667 8.837 6.621 12.297 2.957 3.463 6.735 6.237 11.23 8.246 4.493 2.009 9.676 3.028 15.404 3.028 7.693 0 14.001-2.093 18.75-6.221 2.922-2.543 4.976-5.644 6.105-9.218l.088-.278-.283-.073a166.462 166.462 0 0 1-12.083-3.578l-.287-.098-.07.296c-.567 2.386-1.712 4.38-3.406 5.928-2.555 2.332-5.862 3.514-9.828 3.514-6.105 0-11.142-2.488-14.969-7.395a29.758 29.758 0 0 1-2.447-3.667l-.034-.061-.059-.037c-5.38-3.374-10.734-7.457-15.91-12.136l-.48-.433z"/>
    <path d="M232.16 426.313c-5.768 0-10.989-1.027-15.519-3.052-4.53-2.026-8.342-4.825-11.326-8.32-2.978-3.488-5.225-7.659-6.677-12.397-1.007-3.204-1.562-6.337-1.65-9.31l-.038-1.294.96.869c5.166 4.667 10.506 8.741 15.873 12.106l.118.074.07.122a29.662 29.662 0 0 0 2.422 3.634c3.773 4.836 8.736 7.288 14.752 7.288 3.895 0 7.14-1.158 9.642-3.443 1.652-1.509 2.77-3.456 3.323-5.788l.14-.59.575.195a166.266 166.266 0 0 0 12.063 3.573l.565.145-.176.556c-1.144 3.623-3.226 6.766-6.188 9.343-4.799 4.173-11.168 6.289-18.93 6.289m0-.552c7.661 0 13.85-2.051 18.567-6.154 2.904-2.525 4.91-5.558 6.025-9.092a166.856 166.856 0 0 1-12.104-3.585c-.576 2.428-1.726 4.459-3.488 6.068-2.62 2.392-5.958 3.587-10.014 3.587-6.224 0-11.287-2.501-15.187-7.501a29.925 29.925 0 0 1-2.469-3.701c-4.82-3.024-10.219-6.987-15.949-12.165.086 2.912.621 5.967 1.626 9.165 1.436 4.686 3.626 8.753 6.57 12.2 2.942 3.446 6.652 6.172 11.131 8.174 4.478 2.002 9.575 3.004 15.292 3.004"/>
  </g>
</svg>
