<?xml version="1.0" encoding="UTF-8" standalone="no"?>
<svg
   xmlns:dc="http://purl.org/dc/elements/1.1/"
   xmlns:cc="http://creativecommons.org/ns#"
   xmlns:rdf="http://www.w3.org/1999/02/22-rdf-syntax-ns#"
   xmlns:svg="http://www.w3.org/2000/svg"
   xmlns="http://www.w3.org/2000/svg"
   version="1.1"
   id="svg4105"
   xml:space="preserve"
   width="550"
   height="133.682571752"
   viewBox="0 0 318.03623 77.301634"><metadata
     id="metadata4111"><rdf:RDF><cc:Work
         rdf:about=""><dc:format>image/svg+xml</dc:format><dc:type
           rdf:resource="http://purl.org/dc/dcmitype/StillImage" /><dc:title></dc:title></cc:Work></rdf:RDF></metadata><defs
     id="defs4109"><clipPath
       clipPathUnits="userSpaceOnUse"
       id="clipPath4137"><path
         d="M 0,793.7 H 595.28 V 0 H 0 Z"
         id="path4135" /></clipPath></defs><g
     id="g4113"
     transform="matrix(1.3333333,0,0,-1.3333333,-237.80642,568.41732)"><g
       id="g4115"
       transform="translate(299.0674,371.1455)"><path
         d="M 0,0 11.203,42.79 H 22.151 L 11.149,0 Z"
         id="path4117" /></g><g
       id="g4119"
       transform="translate(321.5742,414.2114)"><path
         d="m 0,0 h -0.712 -10.379 -0.426 l -0.108,-0.413 -11.059,-42.237 -0.181,-0.691 h 0.716 10.578 0.427 l 0.108,0.414 10.858,42.237 z M -0.712,-0.552 -11.571,-42.79 h -10.578 l 11.058,42.238 z"
         id="path4121" /></g><g
       id="g4123"
       transform="translate(316.5264,371.1455)"><path
         d="M 0,0 8.331,31.877 H 19.484 L 11.154,0 Z"
         
         id="path4125" /></g><g
       id="g4127"
       transform="translate(336.3682,403.2993)"><path
         d="m 0,0 h -0.715 -10.583 -0.427 l -0.107,-0.413 -8.187,-31.325 -0.18,-0.691 h 0.715 10.584 0.426 l 0.108,0.412 8.185,31.325 z M -0.715,-0.552 -8.9,-31.877 h -10.584 l 8.186,31.325 z"
         
         id="path4129" /></g><g
       id="g4131"><g
         id="g4133"
         clip-path="url(#clipPath4137)"><g
           id="g4139"
           transform="translate(359.1338,371.1455)"><path
             d="m 0,0 4.737,18.132 c 0.678,2.627 1.022,4.201 1.022,4.681 0,1 -0.357,1.764 -1.092,2.332 -0.746,0.579 -1.813,0.872 -3.167,0.872 -1.494,0 -3.186,-0.515 -5.029,-1.53 -1.841,-1.013 -3.308,-2.371 -4.361,-4.035 -0.768,-1.19 -1.65,-3.674 -2.621,-7.386 L -13.922,0 h -11.15 l 8.33,31.877 h 10.596 l -0.941,-3.71 c 2.296,1.527 4.477,2.646 6.488,3.329 2.197,0.743 4.54,1.12 6.966,1.12 3.266,0 5.886,-0.764 7.787,-2.272 1.915,-1.523 2.887,-3.571 2.887,-6.086 0,-1.138 -0.401,-3.206 -1.226,-6.324 L 11.153,0 Z"
             
             id="path4141" /></g><g
           id="g4143"
           transform="translate(365.501,404.0376)"><path
             d="m 0,0 c -2.456,0 -4.829,-0.382 -7.054,-1.135 -1.86,-0.631 -3.86,-1.629 -5.959,-2.972 l 0.68,2.681 0.175,0.688 h -0.71 -10.028 -0.427 l -0.108,-0.413 -8.185,-31.325 -0.181,-0.691 h 0.715 10.58 0.427 l 0.107,0.412 3.358,12.86 c 0.963,3.683 1.832,6.14 2.584,7.303 1.03,1.629 2.463,2.955 4.263,3.946 1.802,0.992 3.449,1.495 4.896,1.495 1.292,0 2.301,-0.274 2.998,-0.814 0.663,-0.513 0.985,-1.204 0.985,-2.115 0,-0.313 -0.176,-1.368 -1.013,-4.612 l -4.647,-17.784 -0.181,-0.691 H -6.01 4.572 4.999 l 0.107,0.413 4.61,17.727 c 0.83,3.14 1.233,5.232 1.233,6.393 0,2.603 -1.006,4.724 -2.99,6.302 C 6.007,-0.785 3.33,0 0,0 m 0,-0.552 c 3.22,0 5.757,-0.739 7.615,-2.212 1.856,-1.476 2.782,-3.431 2.782,-5.87 0,-1.102 -0.405,-3.188 -1.215,-6.254 L 4.572,-32.616 H -6.01 l 4.647,17.786 c 0.685,2.655 1.031,4.239 1.031,4.75 0,1.081 -0.398,1.932 -1.199,2.551 -0.799,0.619 -1.91,0.93 -3.336,0.93 -1.549,0 -3.27,-0.522 -5.162,-1.564 -1.893,-1.042 -3.379,-2.419 -4.461,-4.129 -0.788,-1.22 -1.672,-3.707 -2.655,-7.463 l -3.357,-12.861 h -10.58 l 8.186,31.325 h 10.028 L -13.9,-5.36 c 2.507,1.73 4.848,2.964 7.023,3.702 2.176,0.737 4.469,1.106 6.877,1.106"
             
             id="path4145" /></g><g
           id="g4147"
           transform="translate(406.4102,389.8984)"><path
             d="m 0,0 c 0.015,0.241 0.021,0.435 0.021,0.579 0,2.224 -0.626,3.911 -1.862,5.017 -1.245,1.107 -2.944,1.668 -5.051,1.668 -2.116,0 -4.039,-0.646 -5.715,-1.92 C -14.202,4.132 -15.323,2.335 -15.941,0 Z m -9.807,-19.49 c -5.3,0 -9.675,1.365 -13.005,4.057 -3.345,2.706 -5.042,6.337 -5.042,10.791 0,4.338 1.525,8.249 4.532,11.627 4.092,4.564 10.004,6.878 17.572,6.878 4.835,0 8.741,-1.217 11.607,-3.618 2.879,-2.415 4.339,-5.836 4.339,-10.167 0,-2.059 -0.252,-3.942 -0.749,-5.596 L 9.388,-5.715 h -26.495 c -0.013,-0.203 -0.019,-0.366 -0.019,-0.491 0,-1.992 0.718,-3.618 2.135,-4.833 1.428,-1.23 3.197,-1.852 5.26,-1.852 3.4,0 6.089,1.428 7.994,4.244 l 0.095,0.141 10.063,-1.346 -0.218,-0.36 c -1.862,-3.081 -4.388,-5.424 -7.508,-6.964 -3.113,-1.536 -6.647,-2.314 -10.502,-2.314"
             
             id="path4149" /></g><g
           id="g4151"
           transform="translate(390.832,390.1738)"><path
             d="m 0,0 c 0.619,2.106 1.672,3.735 3.138,4.849 1.628,1.236 3.494,1.863 5.549,1.863 2.036,0 3.673,-0.537 4.867,-1.598 1.175,-1.05 1.77,-2.669 1.77,-4.81 C 15.324,0.22 15.321,0.118 15.316,0 Z m 9.828,13.864 c -7.65,0 -13.631,-2.345 -17.777,-6.969 -3.054,-3.431 -4.602,-7.405 -4.602,-11.812 0,-4.542 1.731,-8.244 5.145,-11.006 3.379,-2.732 7.812,-4.118 13.177,-4.118 3.898,0 7.472,0.788 10.625,2.342 3.167,1.564 5.732,3.942 7.622,7.069 l 0.435,0.721 -0.835,0.111 -9.475,1.268 -0.339,0.046 -0.192,-0.284 c -1.876,-2.774 -4.416,-4.123 -7.765,-4.123 -1.995,0 -3.704,0.601 -5.079,1.785 -1.373,1.177 -2.04,2.69 -2.04,4.625 0,0.061 0.001,0.133 0.004,0.215 h 26.029 0.41 l 0.118,0.393 c 0.505,1.68 0.761,3.589 0.761,5.676 0,4.417 -1.492,7.908 -4.437,10.378 -2.918,2.444 -6.883,3.683 -11.785,3.683 M -0.718,-0.552 h 16.556 c 0.024,0.373 0.038,0.658 0.038,0.856 0,2.32 -0.653,4.058 -1.955,5.222 -1.303,1.159 -3.049,1.739 -5.234,1.739 -2.19,0 -4.15,-0.66 -5.883,-1.977 C 1.071,3.972 -0.103,2.023 -0.718,-0.552 M 9.828,13.312 c 4.794,0 8.603,-1.186 11.431,-3.554 2.826,-2.371 4.239,-5.689 4.239,-9.955 0,-2.046 -0.247,-3.886 -0.737,-5.517 H -1.786 c -0.027,-0.335 -0.038,-0.59 -0.038,-0.767 0,-2.085 0.743,-3.767 2.231,-5.043 1.487,-1.28 3.301,-1.918 5.44,-1.918 3.512,0 6.255,1.455 8.222,4.365 l 9.476,-1.268 c -1.843,-3.049 -4.309,-5.336 -7.394,-6.859 -3.086,-1.522 -6.545,-2.285 -10.38,-2.285 -5.259,0 -9.537,1.332 -12.831,3.996 -3.294,2.665 -4.939,6.189 -4.939,10.576 0,4.287 1.486,8.102 4.461,11.443 4.056,4.524 9.845,6.786 17.366,6.786"
             
             id="path4153" /></g><g
           id="g4155"
           transform="translate(337.7705,411.3057)"><path
             d="m 0,0 c 0,-2.959 -2.576,-5.357 -5.75,-5.357 -3.179,0 -5.752,2.398 -5.752,5.357 0,2.959 2.573,5.359 5.752,5.359 C -2.576,5.359 0,2.959 0,0"
             style="fill:#f2961a;fill-opacity:1;fill-rule:nonzero;stroke:none"
             id="path4157" /></g><g
           id="g4159"
           transform="translate(337.7705,411.3057)"><path
             d="m 0,0 c 0,-2.959 -2.576,-5.357 -5.75,-5.357 -3.179,0 -5.752,2.398 -5.752,5.357 0,2.959 2.573,5.359 5.752,5.359 C -2.576,5.359 0,2.959 0,0 Z"
             style="fill:none;stroke:#ffffff;stroke-width:0.55900002;stroke-linecap:butt;stroke-linejoin:miter;stroke-miterlimit:4;stroke-dasharray:none;stroke-opacity:1"
             id="path4161" /></g><g
           id="g4163"
           transform="translate(178.5771,368.5342)"><path
             d="m 0,0 c 19.63,19.177 35.583,27.692 45.363,32.053 -1.777,-3.476 -3.838,-17.375 -3.838,-17.375 0,0 30.709,25.678 84.092,29.541 -3.312,0.295 -6.638,0.43 -9.943,0.43 -29.243,0 -57.129,-10.6 -63.955,-14.837 1.177,8.623 5.083,14.182 5.083,14.182 C 56.802,43.994 28.807,39.137 0,0"
             style="fill:#f2961a;fill-opacity:1;fill-rule:evenodd;stroke:none"
             id="path4165" /></g><g
           id="g4167"
           transform="translate(178.5771,368.5342)"><path
             d="m 0,0 c 19.63,19.177 35.583,27.692 45.363,32.053 -1.777,-3.476 -3.838,-17.375 -3.838,-17.375 0,0 30.709,25.678 84.092,29.541 -3.312,0.295 -6.638,0.43 -9.943,0.43 -29.243,0 -57.129,-10.6 -63.955,-14.837 1.177,8.623 5.083,14.182 5.083,14.182 C 56.802,43.994 28.807,39.137 0,0 Z"
             style="fill:none;stroke:#ffffff;stroke-width:0.55199999;stroke-linecap:butt;stroke-linejoin:miter;stroke-miterlimit:4;stroke-dasharray:none;stroke-opacity:1"
             id="path4169" /></g><g
           id="g4171"
           transform="translate(281.8291,371.1455)"><path
             d="m 0,0 4.735,18.132 c 0.846,3.256 1.023,4.343 1.023,4.681 0,1 -0.356,1.763 -1.09,2.333 -0.747,0.578 -1.814,0.871 -3.168,0.871 -1.494,0 -3.186,-0.515 -5.029,-1.53 -1.842,-1.012 -3.31,-2.37 -4.363,-4.035 -0.769,-1.195 -1.65,-3.679 -2.62,-7.386 L -13.919,0 h -11.155 l 8.33,31.877 h 10.599 l -0.943,-3.709 c 2.296,1.526 4.476,2.645 6.489,3.328 2.196,0.743 4.539,1.12 6.966,1.12 3.268,0 5.887,-0.764 7.785,-2.272 1.916,-1.524 2.888,-3.572 2.888,-6.086 0,-1.135 -0.401,-3.203 -1.226,-6.324 L 11.153,0 Z"
             
             id="path4173" /></g><g
           id="g4175"
           transform="translate(288.1963,404.0376)"><path
             d="m 0,0 c -2.457,0 -4.83,-0.382 -7.054,-1.135 -1.861,-0.631 -3.861,-1.629 -5.96,-2.971 l 0.682,2.679 0.175,0.689 h -0.71 -10.03 -0.427 l -0.108,-0.413 -8.186,-31.325 -0.181,-0.691 h 0.715 10.584 0.427 l 0.107,0.412 3.354,12.86 c 0.963,3.678 1.832,6.136 2.584,7.304 1.03,1.629 2.464,2.954 4.265,3.945 1.802,0.992 3.449,1.495 4.896,1.495 1.292,0 2.301,-0.274 3,-0.814 0.66,-0.514 0.982,-1.205 0.982,-2.115 0,-0.263 -0.132,-1.212 -1.014,-4.611 l -4.645,-17.785 -0.181,-0.691 H -6.01 4.572 4.999 l 0.107,0.413 4.608,17.727 c 0.83,3.142 1.234,5.234 1.234,6.393 0,2.603 -1.006,4.723 -2.991,6.302 C 6.009,-0.785 3.332,0 0,0 m 0,-0.552 c 3.221,0 5.758,-0.739 7.613,-2.212 1.856,-1.476 2.783,-3.431 2.783,-5.87 0,-1.102 -0.406,-3.188 -1.216,-6.254 L 4.572,-32.616 H -6.01 l 4.645,17.786 c 0.689,2.655 1.032,4.239 1.032,4.75 0,1.081 -0.399,1.932 -1.196,2.551 -0.801,0.619 -1.914,0.93 -3.338,0.93 -1.548,0 -3.27,-0.522 -5.162,-1.564 -1.895,-1.042 -3.381,-2.419 -4.463,-4.129 -0.785,-1.22 -1.671,-3.707 -2.654,-7.463 L -20.5,-32.616 h -10.584 l 8.187,31.325 h 10.03 l -1.035,-4.069 c 2.507,1.73 4.849,2.964 7.025,3.702 2.175,0.737 4.467,1.106 6.877,1.106"
             
             id="path4177" /></g><g
           id="g4179"
           transform="translate(222.8232,370.2441)"><path
             d="m 0,0 c -5.793,0 -10.729,1.152 -14.67,3.424 -3.944,2.274 -6.781,5.138 -8.434,8.512 -0.183,0.375 -0.352,0.751 -0.515,1.125 l -0.087,0.201 0.176,0.131 c 3.571,2.649 7.209,5.111 10.814,7.318 l 0.361,0.222 0.056,-0.42 c 0.373,-2.778 1.604,-5.181 3.661,-7.147 2.526,-2.413 5.901,-3.637 10.033,-3.637 3.367,0 6.651,0.973 9.761,2.891 3.109,1.918 5.719,4.87 7.759,8.776 0.47,0.904 0.895,1.833 1.297,2.84 l 0.04,0.1 0.097,0.047 c 4.626,2.22 9.465,4.261 14.383,6.066 L 35.143,30.6 35.102,30.164 C 34.666,25.499 33.155,20.922 30.613,16.562 27.533,11.273 23.289,7.146 18.001,4.295 12.716,1.445 6.66,0 0,0"
             
             id="path4181" /></g><g
           id="g4183"
           transform="translate(258.2817,401.2534)"><path
             d="m 0,0 -0.822,-0.301 c -4.926,-1.809 -9.773,-3.853 -14.407,-6.076 l -0.194,-0.094 -0.079,-0.199 c -0.399,-0.999 -0.82,-1.92 -1.287,-2.816 -2.015,-3.86 -4.592,-6.777 -7.659,-8.669 -3.065,-1.89 -6.3,-2.849 -9.616,-2.849 -4.058,0 -7.369,1.198 -9.842,3.561 -2.011,1.921 -3.214,4.27 -3.577,6.983 l -0.113,0.839 -0.723,-0.442 c -3.612,-2.211 -7.256,-4.678 -10.834,-7.332 l -0.352,-0.261 0.175,-0.402 c 0.164,-0.379 0.335,-0.759 0.52,-1.138 1.677,-3.423 4.551,-6.326 8.543,-8.629 3.984,-2.296 8.966,-3.46 14.809,-3.46 6.706,0 12.806,1.456 18.132,4.327 5.333,2.876 9.613,7.039 12.72,12.371 2.562,4.396 4.084,9.01 4.524,13.716 z m -0.631,-0.82 c -0.433,-4.621 -1.906,-9.119 -4.452,-13.489 -3.071,-5.27 -7.239,-9.322 -12.505,-12.162 -5.267,-2.84 -11.224,-4.262 -17.87,-4.262 -5.774,0 -10.618,1.13 -14.533,3.387 -3.915,2.258 -6.688,5.055 -8.323,8.393 -0.182,0.371 -0.349,0.744 -0.51,1.115 3.58,2.656 7.174,5.088 10.793,7.304 0.38,-2.834 1.615,-5.275 3.743,-7.308 2.591,-2.476 5.999,-3.714 10.224,-3.714 3.436,0 6.738,0.977 9.906,2.931 3.168,1.955 5.787,4.917 7.859,8.884 0.501,0.961 0.929,1.914 1.309,2.866 4.231,2.03 9.03,4.099 14.359,6.055"
             
             id="path4185" /></g><g
           id="g4187"
           transform="translate(197.2642,393.2256)"><path
             d="m 0,0 c 0.087,2.948 0.638,6.056 1.639,9.24 1.44,4.699 3.668,8.837 6.622,12.297 2.957,3.463 6.735,6.237 11.229,8.246 4.494,2.009 9.677,3.028 15.405,3.028 7.693,0 14.001,-2.093 18.749,-6.221 2.923,-2.543 4.977,-5.644 6.106,-9.218 l 0.088,-0.278 -0.283,-0.073 C 55.435,15.967 51.37,14.763 47.472,13.443 l -0.287,-0.098 -0.07,0.296 c -0.567,2.386 -1.712,4.38 -3.406,5.928 -2.555,2.332 -5.862,3.514 -9.828,3.514 -6.105,0 -11.142,-2.488 -14.969,-7.395 -0.904,-1.158 -1.727,-2.392 -2.447,-3.667 L 16.431,11.96 16.372,11.923 C 10.992,8.549 5.638,4.466 0.461,-0.213 l -0.48,-0.433 z"
             
             id="path4189" /></g><g
           id="g4191"
           transform="translate(232.1592,426.313)"><path
             d="m 0,0 c -5.767,0 -10.988,-1.027 -15.518,-3.052 -4.531,-2.026 -8.342,-4.825 -11.326,-8.32 -2.978,-3.488 -5.225,-7.659 -6.677,-12.397 -1.007,-3.204 -1.562,-6.337 -1.65,-9.31 l -0.038,-1.294 0.96,0.869 c 5.166,4.667 10.506,8.741 15.873,12.106 l 0.118,0.074 0.069,0.122 c 0.713,1.263 1.528,2.485 2.423,3.634 3.773,4.836 8.736,7.288 14.752,7.288 3.895,0 7.139,-1.158 9.642,-3.443 1.652,-1.509 2.77,-3.456 3.323,-5.788 l 0.14,-0.59 0.575,0.195 c 3.891,1.318 7.949,2.52 12.063,3.573 l 0.565,0.145 -0.176,0.556 c -1.144,3.623 -3.226,6.766 -6.188,9.343 C 14.131,-2.116 7.762,0 0,0 m 0,-0.552 c 7.661,0 13.85,-2.051 18.567,-6.154 2.904,-2.525 4.909,-5.558 6.025,-9.092 -4.428,-1.133 -8.498,-2.364 -12.104,-3.585 -0.576,2.428 -1.726,4.459 -3.488,6.068 -2.62,2.392 -5.958,3.587 -10.014,3.587 -6.224,0 -11.287,-2.501 -15.187,-7.501 -0.94,-1.205 -1.757,-2.44 -2.469,-3.701 -4.821,-3.024 -10.219,-6.987 -15.949,-12.165 0.086,2.912 0.621,5.967 1.626,9.165 1.436,4.686 3.626,8.753 6.569,12.2 2.943,3.446 6.653,6.172 11.132,8.174 4.478,2.002 9.575,3.004 15.292,3.004"
             
             id="path4193" /></g></g></g></g></svg>